<svg xmlns="http://www.w3.org/2000/svg" width="57.844" height="70.551" viewBox="0 0 57.844 70.551">
  <path id="apple" d="M102,48.545C99.791,47.221,95.2,44.465,95.2,37.3c0-6.051,4.049-9.1,6.224-10.745l.045-.034a2.066,2.066,0,0,0,.475-2.795c-4.859-7.3-13.2-7.507-14.827-7.476h-.01a16.2,16.2,0,0,0-3.182.332q.558-.446,1.08-.95A18.172,18.172,0,0,0,90.25,2.008,2.067,2.067,0,0,0,88.185,0c-3.76,0-8.036,2.246-11.158,5.863C73.881,9.508,72.411,13.874,73,17.841a2.05,2.05,0,0,0,.357.887c-.551-.185-1.134-.4-1.709-.612a21.353,21.353,0,0,0-6.99-1.719,20.019,20.019,0,0,0-9.483,2.963c-4.124,2.563-9.041,7.9-9.041,18.764,0,5.651,2.208,13.563,5.625,20.158,2.361,4.556,7.26,12.2,13.552,12.239h.067c4.588,0,8.39-2.709,10.975-2.709,4.416,0,5.987,2.74,10.763,2.74,4.281,0,8.429-3.252,12.332-9.664a55.658,55.658,0,0,0,3.229-6.224c1.3-2.934,1.3-3.325,1.3-3.611C103.974,49.734,102.968,49.129,102,48.545ZM80.155,8.563A13.519,13.519,0,0,1,86.01,4.5a13.534,13.534,0,0,1-3.873,8.159,9.939,9.939,0,0,1-5.1,2.708A12.253,12.253,0,0,1,80.155,8.563Zm15.559,50.5c-2.949,4.744-6,7.355-8.6,7.355-3.574,0-5.245-2.74-10.763-2.74-3.723,0-7.275,2.729-11.019,2.709-2.92-.017-6.716-3.851-9.906-10.008-3.136-6.051-5.162-13.217-5.162-18.257,0-7.135,2.346-12.241,6.968-15.177a16.038,16.038,0,0,1,7.436-2.417c3.226.008,7.7,2.864,10.967,2.864,2.938,0,6.872-3.015,11.494-3.015H87.2a13.946,13.946,0,0,1,10.133,4.139A16.51,16.51,0,0,0,99.4,51.805,51.217,51.217,0,0,1,95.714,59.064Z" transform="translate(-46.13)" fill="#3b92e1"/>
</svg>
