<svg id="Ui_Ux_Design" data-name="Ui Ux Design" xmlns="http://www.w3.org/2000/svg" width="70.475" height="70.551" viewBox="0 0 70.475 70.551">
  <g id="_035---Creative-Thinking" data-name="035---Creative-Thinking" transform="translate(0 0)">
    <path id="Shape" d="M60.869,51.737a15.8,15.8,0,0,0-.028-6l5.385-13a.19.19,0,0,0,0-.026,22.082,22.082,0,0,1,3.78-6.564,1.753,1.753,0,0,0,.434-1.605l-2.208-9.536a1.149,1.149,0,0,0-.118-.285c-.009-.018-.013-.039-.022-.055s-.051-.056-.074-.087a1.186,1.186,0,0,0-.166-.194,1.093,1.093,0,0,0-.128-.078,1.2,1.2,0,0,0-.182-.111,1.162,1.162,0,0,0-.275-.067c-.027,0-.051-.018-.078-.02a1.175,1.175,0,0,0-.648.145c-.018.009-.039.013-.056.024h-.012l-8.3,5.182a1.754,1.754,0,0,0-.83,1.446,22.072,22.072,0,0,1-1.977,7.329v.013l-2.692,6.506a15.774,15.774,0,0,0-4.2-1.517,63.528,63.528,0,0,0,.609-11.562A12.833,12.833,0,0,0,52,12.262C51.265,5.409,45.072.46,44.807.252a1.176,1.176,0,0,0-1.864,1.226c.606,2.274.081,4.674-4.392,9.609a6.881,6.881,0,0,0-1.612,7.5,9.128,9.128,0,0,0,1.674,2.7c-.285,1.817-.508,3.537-.662,5.213a58.886,58.886,0,0,0-.2,8.339,16,16,0,0,0-2.928,2.04l-5.7-24.387c0-.025-.024-.042-.031-.065A1.112,1.112,0,0,0,29,12.2L23.179,1.445a2.715,2.715,0,0,0-5.1,1.195l-.442,12.223a1.215,1.215,0,0,0,.029.262v.053l5.818,24.83a13.242,13.242,0,0,0-2.719.406l-6.4-15.457A2.376,2.376,0,0,0,11.3,23.7L1.514,27.75A2.359,2.359,0,0,0,.24,30.823l8.68,20.94A9.4,9.4,0,0,0,9.4,70.551H61.142a9.408,9.408,0,1,0-.273-18.814ZM59.671,21.3,64.6,18.226,62.855,22.44a1.176,1.176,0,0,0,2.173.9l1.745-4.214,1.306,5.659a23.256,23.256,0,0,0-3.41,5.629A4.836,4.836,0,0,1,58.1,27.7,23.228,23.228,0,0,0,59.671,21.3Zm-2.7,9.232A7.162,7.162,0,0,0,59.9,32.668a7.462,7.462,0,0,0,2.877.607,6.221,6.221,0,0,0,.713-.044l-3.752,9.054a15.958,15.958,0,0,0-5.049-6.243Zm-16.109-8.4,5.907.361c.036,1.1.024,2.234-.013,3.388a24.718,24.718,0,0,1-5.891-.285c-.148-.021-.293-.038-.44-.058.118-1.108.261-2.229.434-3.406ZM40.3,12.666c3.122-3.444,4.74-6.093,5.116-8.584a15.726,15.726,0,0,1,4.244,8.428,10.536,10.536,0,0,1-2.38,7.657q-3.484-.212-6.892-.423a4.9,4.9,0,0,1-.091-7.079Zm-.089,15.219.341.045a33.5,33.5,0,0,0,4.578.389c.487,0,1-.039,1.513-.079-.107,1.513-.282,3.094-.5,4.727-.29-.015-.575-.044-.867-.044a15.749,15.749,0,0,0-5.211.9,56.74,56.74,0,0,1,.148-5.936Zm-9.1,13.75-3.364-14.33a1.176,1.176,0,0,0-2.289.536l3.023,12.9a13.317,13.317,0,0,0-2.563-.638L20.758,18.078a5.573,5.573,0,0,0,2.3.5c.074,0,.153-.011.228-.014l.831,3.55a1.176,1.176,0,1,0,2.289-.536l-.833-3.552a5.569,5.569,0,0,0,2.054-1.564L32.877,38.9A15.776,15.776,0,0,0,31.112,41.636ZM23.928,16.12A3.9,3.9,0,0,1,20,14.548l.149-4.141a6.919,6.919,0,0,0,1.241.118,5.239,5.239,0,0,0,1.195-.133,5.99,5.99,0,0,0,2.18-1.084l1.98,3.655a3.9,3.9,0,0,1-2.819,3.161ZM20.707,2.384a.367.367,0,0,1,.4.181l2.521,4.662a4.012,4.012,0,0,1-1.587.882,4,4,0,0,1-1.812-.086l.192-5.3A.364.364,0,0,1,20.707,2.384ZM12.2,25.869l.9,2.171-4.351,1.8A1.176,1.176,0,0,0,9.2,32.1a1.193,1.193,0,0,0,.45-.089L14,30.209l.9,2.173-2.177.9a1.176,1.176,0,0,0,.452,2.262,1.2,1.2,0,0,0,.449-.089l2.177-.9.9,2.173-4.354,1.8A1.176,1.176,0,0,0,12.8,40.8a1.191,1.191,0,0,0,.449-.089L17.6,38.9l.951,2.3a13.65,13.65,0,0,0-7.614,9.267L2.411,29.918ZM61.142,68.2H9.4a7.055,7.055,0,1,1,0-14.11,6.926,6.926,0,0,1,2.012.292,1.176,1.176,0,0,0,1.516-1.1,11.171,11.171,0,0,1,17.873-8.712,1.176,1.176,0,0,0,1.8-.529A13.525,13.525,0,0,1,58.2,52.765a1.176,1.176,0,0,0,1.376,1.5,7.341,7.341,0,0,1,1.57-.172,7.055,7.055,0,1,1,0,14.11Z" transform="translate(-0.012 0)" fill="#3b92e1"/>
    <path id="Shape-2" data-name="Shape" d="M38.86,16.939a1.176,1.176,0,0,0,.941-.464,8.819,8.819,0,0,0,1.564-6.923,1.176,1.176,0,1,0-2.272.606,6.532,6.532,0,0,1-1.166,4.9,1.176,1.176,0,0,0,.941,1.881Z" transform="translate(6.614 1.522)" fill="#3b92e1"/>
    <path id="Shape-3" data-name="Shape" d="M39.654,46.345a5.78,5.78,0,0,0-2.522.588,7.055,7.055,0,0,0-12.188,6.926,1.176,1.176,0,0,0,1.082.715,1.163,1.163,0,0,0,.461-.094,1.176,1.176,0,0,0,.621-1.543,4.789,4.789,0,0,1-.388-1.888,4.7,4.7,0,0,1,4.7-4.7,4.656,4.656,0,0,1,4.251,2.7,1.274,1.274,0,0,0,.082.111,1.194,1.194,0,0,0,.062.118c.021.026.052.038.075.062a1.652,1.652,0,0,0,.37.27,1.17,1.17,0,0,0,.212.066,1.081,1.081,0,0,0,.221.034,1.445,1.445,0,0,0,.449-.075.9.9,0,0,0,.093-.022,1.066,1.066,0,0,0,.109-.081,1.222,1.222,0,0,0,.123-.063,3.468,3.468,0,0,1,2.182-.771,3.527,3.527,0,0,1,3.2,2.052,1.176,1.176,0,0,0,2.14-.976A5.879,5.879,0,0,0,39.654,46.345Z" transform="translate(4.273 7.745)" fill="#3b92e1"/>
    <path id="Shape-4" data-name="Shape" d="M18.332,39.061C18.154,39.119,14,40.555,14,44.88a1.176,1.176,0,0,0,2.352,0,4.043,4.043,0,0,1,2.73-3.59,1.178,1.178,0,1,0-.75-2.234Z" transform="translate(2.448 6.858)" fill="#3b92e1"/>
    <path id="Shape-5" data-name="Shape" d="M31.89,39.02a1.148,1.148,0,0,0,.286.035,1.176,1.176,0,0,0,1.139-.89,5.015,5.015,0,0,1,4.746-3.813A1.176,1.176,0,1,0,38.055,32a7.324,7.324,0,0,0-7.02,5.594A1.176,1.176,0,0,0,31.89,39.02Z" transform="translate(5.437 5.628)" fill="#3b92e1"/>
  </g>
</svg>
