<svg id="web-programming" xmlns="http://www.w3.org/2000/svg" width="82.729" height="70.69" viewBox="0 0 82.729 70.69">
  <path id="Path_307" data-name="Path 307" d="M125.2,198.212a1.387,1.387,0,0,1-.884-.316l-8.838-7.289a1.3,1.3,0,0,1,0-2.014l8.838-7.289a1.4,1.4,0,0,1,1.925.149,1.294,1.294,0,0,1-.155,1.865l-7.616,6.282,7.616,6.282a1.294,1.294,0,0,1,.155,1.865,1.382,1.382,0,0,1-1.041.466Zm0,0" transform="translate(-92.562 -146.788)" fill="#3b92e1"/>
  <path id="Path_308" data-name="Path 308" d="M251.074,198.212a1.38,1.38,0,0,1-1.04-.466,1.294,1.294,0,0,1,.154-1.865L257.8,189.6l-7.616-6.282a1.294,1.294,0,0,1-.154-1.865,1.4,1.4,0,0,1,1.924-.149l8.838,7.289a1.3,1.3,0,0,1,0,2.014l-8.838,7.289a1.387,1.387,0,0,1-.884.316Zm0,0" transform="translate(-200.986 -146.788)" fill="#3b92e1"/>
  <path id="Path_309" data-name="Path 309" d="M190.322,181a1.432,1.432,0,0,1-.283-.029,1.324,1.324,0,0,1-1.055-1.567l5.508-25.328a1.366,1.366,0,0,1,1.618-1.022,1.324,1.324,0,0,1,1.055,1.567l-5.508,25.328A1.357,1.357,0,0,1,190.322,181Zm0,0" transform="translate(-152.086 -124.108)" fill="#3b92e1"/>
  <path id="Path_310" data-name="Path 310" d="M73.559,70.69H9.17A9.04,9.04,0,0,1,0,61.809V8.882A9.04,9.04,0,0,1,9.17,0H73.559a9.04,9.04,0,0,1,9.17,8.882V61.809A9.04,9.04,0,0,1,73.559,70.69ZM9.17,2.646A6.347,6.347,0,0,0,2.732,8.882V61.809A6.347,6.347,0,0,0,9.17,68.045H73.559A6.347,6.347,0,0,0,80,61.809V8.882a6.347,6.347,0,0,0-6.439-6.236Zm0,0" fill="#3b92e1"/>
  <path id="Path_311" data-name="Path 311" d="M81.363,100.736h-80a1.323,1.323,0,1,1,0-2.646h80a1.323,1.323,0,1,1,0,2.646Zm0,0" transform="translate(0 -79.554)" fill="#3b92e1"/>
  <path id="Path_312" data-name="Path 312" d="M101.772,42.661a4.188,4.188,0,1,1,4.322-4.186A4.262,4.262,0,0,1,101.772,42.661Zm0-5.727a1.541,1.541,0,1,0,1.591,1.541A1.568,1.568,0,0,0,101.772,36.935Zm0,0" transform="translate(-78.436 -27.81)" fill="#3b92e1"/>
  <path id="Path_313" data-name="Path 313" d="M33.709,42.446a4.188,4.188,0,1,1,4.322-4.186A4.261,4.261,0,0,1,33.709,42.446Zm0-5.727A1.541,1.541,0,1,0,35.3,38.26,1.569,1.569,0,0,0,33.709,36.72Zm0,0" transform="translate(-23.653 -27.635)" fill="#3b92e1"/>
  <path id="Path_314" data-name="Path 314" d="M169.837,42.875a4.188,4.188,0,1,1,4.322-4.186A4.26,4.26,0,0,1,169.837,42.875Zm0-5.727a1.541,1.541,0,1,0,1.591,1.541A1.568,1.568,0,0,0,169.837,37.149Zm0,0" transform="translate(-133.221 -27.984)" fill="#3b92e1"/>
</svg>
